<svg xmlns="http://www.w3.org/2000/svg" width="48" height="48" viewBox="0 0 48 48">
  <defs>
    <linearGradient id="bg48" x1="0%" y1="0%" x2="100%" y2="100%">
      <stop offset="0%" style="stop-color:#1976d2;stop-opacity:1" />
      <stop offset="100%" style="stop-color:#1565c0;stop-opacity:1" />
    </linearGradient>
  </defs>
  
  <!-- Background -->
  <circle cx="24" cy="24" r="24" fill="url(#bg48)"/>
  
  <!-- Suitcase -->
  <rect x="14" y="18" width="20" height="14" rx="2" fill="#fff" opacity="0.95"/>
  <rect x="16" y="20" width="16" height="10" fill="#1976d2"/>
  <circle cx="18" cy="25" r="1" fill="#fff"/>
  <circle cx="30" cy="25" r="1" fill="#fff"/>
  <rect x="22" y="16" width="4" height="4" rx="1" fill="#fff"/>
  
  <!-- Currency symbol -->
  <circle cx="36" cy="36" r="6" fill="#4caf50"/>
  <text x="36" y="40" text-anchor="middle" font-family="Arial" font-size="8" font-weight="bold" fill="white">₪</text>
  
  <!-- Small airplane -->
  <g transform="translate(8, 8) scale(0.6)" fill="#ff9800">
    <path d="M12 16l-6-3 1-1 8 2 6-6-1-1-9-1-2-2-1 1 2 9-6 6 1 1 3-8z"/>
  </g>
</svg>