<svg xmlns="http://www.w3.org/2000/svg" width="32" height="32" viewBox="0 0 32 32">
  <!-- Background with gradient -->
  <defs>
    <linearGradient id="bg" x1="0%" y1="0%" x2="100%" y2="100%">
      <stop offset="0%" style="stop-color:#1976d2;stop-opacity:1" />
      <stop offset="100%" style="stop-color:#1565c0;stop-opacity:1" />
    </linearGradient>
  </defs>
  <circle cx="16" cy="16" r="16" fill="url(#bg)"/>
  
  <!-- Suitcase/Luggage -->
  <rect x="10" y="12" width="12" height="8" rx="1" fill="#fff" opacity="0.9"/>
  <rect x="11" y="13" width="10" height="6" fill="#1976d2"/>
  <circle cx="12" cy="16" r="0.5" fill="#fff"/>
  <circle cx="20" cy="16" r="0.5" fill="#fff"/>
  <rect x="15" y="11" width="2" height="2" rx="0.5" fill="#fff"/>
  
  <!-- Airplane -->
  <path d="M6 8l3-1 2 2 4-1-1-3 2-1 3 4 3-1-2 2-3 1-2-2-4 1 1 3-2 1z" fill="#ff9800" opacity="0.8" transform="scale(0.7) translate(2, 2)"/>
  
  <!-- Currency symbol -->
  <circle cx="24" cy="24" r="4" fill="#4caf50"/>
  <text x="24" y="27" text-anchor="middle" font-family="Arial, sans-serif" font-size="5" font-weight="bold" fill="white">₪</text>
</svg>